<svg width="427.1925048828125px" height="209.86872558593748px" xmlns="http://www.w3.org/2000/svg" viewBox="36.40374755859375 -29.93436279296874 427.1925048828125 209.86872558593748" style="background: none;" preserveAspectRatio="xMidYMid"><defs><filter id="editing-extrusion" x="-100%" y="-100%" width="300%" height="300%"><feFlood result="color1" flood-color="#c2d2ee"></feFlood><feConvolveMatrix order="6,6" divisor="1" kernelMatrix="1 0 0 0 0 0 0 1 0 0 0 0 0 0 1 0 0 0 0 0 0 1 0 0 0 0 0 0 1 0 0 0 0 0 0 1" in="SourceAlpha" result="extrude"></feConvolveMatrix><feComposite in="color1" in2="extrude" result="comp-extrude" operator="in"></feComposite><feOffset dx="3" dy="3" in="comp-extrude" result="offset-extrude"></feOffset><feMerge><feMergeNode in="offset-extrude"></feMergeNode><feMergeNode in="SourceGraphic"></feMergeNode></feMerge></filter></defs><g filter="url(#editing-extrusion)"><g transform="translate(100.18500709533691, 128.0409393310547)"><path d="M24.82-20.88L24.82-20.88L24.82-20.88Q24.48-15.54 24.01-10.73L24.01-10.73L24.01-10.73Q23.55-5.92 23.32-2.32L23.32-2.32L23.32-2.32Q23.20-0.93 22.74-0.46L22.74-0.46L22.74-0.46Q22.27 0 20.76 0L20.76 0L16.59 0L16.59 0Q12.99 0 10.73-0.75L10.73-0.75L10.73-0.75Q8.47-1.51 7.13-2.90L7.13-2.90L7.13-2.90Q5.80-4.29 5.28-6.32L5.28-6.32L5.28-6.32Q4.76-8.35 4.76-11.02L4.76-11.02L4.76-11.02Q4.76-12.76 4.93-15.95L4.93-15.95L4.93-15.95Q5.10-19.14 5.57-24.77L5.57-24.77L5.57-24.77Q6.03-30.39 6.67-39.03L6.67-39.03L6.67-39.03Q7.31-47.68 8.24-60.44L8.24-60.44L8.24-60.44Q8.35-62.99 8.82-63.45L8.82-63.45L8.82-63.45Q9.16-63.80 10.67-63.80L10.67-63.80L15.20-63.80L15.20-63.80Q18.68-63.80 20.88-62.99L20.88-62.99L20.88-62.99Q23.08-62.18 24.48-60.90L24.48-60.90L24.48-60.90Q25.87-59.62 26.45-57.88L26.45-57.88L26.45-57.88Q27.03-56.14 27.14-54.29L27.14-54.29L27.14-54.29Q30.51-60.55 34.80-62.76L34.80-62.76L34.80-62.76Q39.09-64.96 44.89-64.96L44.89-64.96L44.89-64.96Q48.02-64.96 50.92-64.38L50.92-64.38L50.92-64.38Q53.82-63.80 56.14-62.41L56.14-62.41L56.14-62.41Q58.46-61.02 60.09-58.75L60.09-58.75L60.09-58.75Q61.71-56.49 62.41-53.01L62.41-53.01L62.41-53.01Q66.00-59.74 70.30-62.35L70.30-62.35L70.30-62.35Q74.59-64.96 81.08-64.96L81.08-64.96L81.08-64.96Q84.68-64.96 87.99-64.21L87.99-64.21L87.99-64.21Q91.29-63.45 93.73-61.60L93.73-61.60L93.73-61.60Q96.16-59.74 97.61-56.55L97.61-56.55L97.61-56.55Q99.06-53.36 99.06-48.60L99.06-48.60L99.06-48.60Q99.06-45.01 98.72-39.79L98.72-39.79L98.72-39.79Q98.37-34.57 97.90-28.48L97.90-28.48L97.90-28.48Q97.44-22.39 96.86-15.95L96.86-15.95L96.86-15.95Q96.28-9.51 95.93-3.60L95.93-3.60L95.93-3.60Q95.82-2.32 95.70-1.62L95.70-1.62L95.70-1.62Q95.58-0.93 95.29-0.58L95.29-0.58L95.29-0.58Q95.00-0.23 94.42-0.12L94.42-0.12L94.42-0.12Q93.84 0 92.80 0L92.80 0L89.09 0L89.09 0Q85.38 0 83.06-0.70L83.06-0.70L83.06-0.70Q80.74-1.39 79.46-2.67L79.46-2.67L79.46-2.67Q78.18-3.94 77.66-5.86L77.66-5.86L77.66-5.86Q77.14-7.77 77.14-10.21L77.14-10.21L77.14-10.21Q77.14-11.72 77.31-14.50L77.31-14.50L77.31-14.50Q77.49-17.28 77.78-20.53L77.78-20.53L77.78-20.53Q78.07-23.78 78.36-27.26L78.36-27.26L78.36-27.26Q78.65-30.74 78.94-33.70L78.94-33.70L78.94-33.70Q79.23-36.66 79.40-38.86L79.40-38.86L79.40-38.86Q79.58-41.06 79.58-41.76L79.58-41.76L79.58-41.76Q79.58-44.78 78.36-47.10L78.36-47.10L78.36-47.10Q77.14-49.42 73.66-49.42L73.66-49.42L73.66-49.42Q70.64-49.42 68.44-47.44L68.44-47.44L68.44-47.44Q66.24-45.47 64.73-41.99L64.73-41.99L64.73-41.99Q63.22-38.51 62.29-33.76L62.29-33.76L62.29-33.76Q61.36-29 61.02-23.43L61.02-23.43L61.02-23.43Q60.78-19.84 60.44-15.20L60.44-15.20L60.44-15.20Q60.09-10.56 59.62-3.60L59.62-3.60L59.62-3.60Q59.51-2.32 59.39-1.62L59.39-1.62L59.39-1.62Q59.28-0.93 58.99-0.58L58.99-0.58L58.99-0.58Q58.70-0.23 58.12-0.12L58.12-0.12L58.12-0.12Q57.54 0 56.49 0L56.49 0L52.78 0L52.78 0Q49.07 0 46.75-0.70L46.75-0.70L46.75-0.70Q44.43-1.39 43.15-2.67L43.15-2.67L43.15-2.67Q41.88-3.94 41.35-5.86L41.35-5.86L41.35-5.86Q40.83-7.77 40.83-10.21L40.83-10.21L40.83-10.21Q40.83-12.53 41.24-16.99L41.24-16.99L41.24-16.99Q41.64-21.46 42.05-26.27L42.05-26.27L42.05-26.27Q42.46-31.09 42.86-35.44L42.86-35.44L42.86-35.44Q43.27-39.79 43.27-41.76L43.27-41.76L43.27-41.76Q43.27-44.78 42.05-47.10L42.05-47.10L42.05-47.10Q40.83-49.42 37.35-49.42L37.35-49.42L37.35-49.42Q34.22-49.42 32.02-47.10L32.02-47.10L32.02-47.10Q29.81-44.78 28.36-40.89L28.36-40.89L28.36-40.89Q26.91-37.00 26.04-31.78L26.04-31.78L26.04-31.78Q25.17-26.56 24.82-20.88ZM131.54-53.13L131.54-53.13L131.54-53.13Q131.54-50.46 131.20-46.81L131.20-46.81L131.20-46.81Q130.85-43.15 130.44-39.50L130.44-39.50L130.44-39.50Q130.04-35.84 129.69-32.65L129.69-32.65L129.69-32.65Q129.34-29.46 129.34-27.72L129.34-27.72L129.34-27.72Q129.34-23.32 131.49-21.17L131.49-21.17L131.49-21.17Q133.63-19.02 136.76-19.02L136.76-19.02L136.76-19.02Q142.22-19.02 145.46-24.71L145.46-24.71L145.46-24.71Q148.71-30.39 149.52-39.79L149.52-39.79L151.38-61.48L151.38-61.48Q151.50-62.76 152.25-63.28L152.25-63.28L152.25-63.28Q153.00-63.80 153.93-63.80L153.93-63.80L158.11-63.80L158.11-63.80Q160.54-63.80 162.69-63.39L162.69-63.39L162.69-63.39Q164.84-62.99 166.46-61.89L166.46-61.89L166.46-61.89Q168.08-60.78 169.01-58.93L169.01-58.93L169.01-58.93Q169.94-57.07 169.94-54.17L169.94-54.17L169.94-54.17Q169.94-53.01 169.77-49.82L169.77-49.82L169.77-49.82Q169.59-46.63 169.19-40.66L169.19-40.66L169.19-40.66Q168.78-34.68 168.08-25.58L168.08-25.58L168.08-25.58Q167.39-16.47 166.46-3.36L166.46-3.36L166.46-3.36Q165.88 4.29 163.04 9.34L163.04 9.34L163.04 9.34Q160.20 14.38 155.90 17.34L155.90 17.34L155.90 17.34Q151.61 20.30 146.28 21.46L146.28 21.46L146.28 21.46Q140.94 22.62 135.37 22.62L135.37 22.62L135.37 22.62Q129.46 22.62 124.53 21.58L124.53 21.58L124.53 21.58Q119.60 20.53 116 18.68L116 18.68L116 18.68Q112.40 16.82 110.37 14.38L110.37 14.38L110.37 14.38Q108.34 11.95 108.34 9.16L108.34 9.16L108.34 9.16Q108.34 6.96 109.33 5.34L109.33 5.34L109.33 5.34Q110.32 3.71 111.94 2.67L111.94 2.67L111.94 2.67Q113.56 1.62 115.71 1.10L115.71 1.10L115.71 1.10Q117.86 0.58 120.18 0.58L120.18 0.58L120.18 0.58Q121.34 0.58 121.86 1.74L121.86 1.74L121.86 1.74Q122.38 2.90 123.48 4.35L123.48 4.35L123.48 4.35Q124.58 5.80 127.02 6.96L127.02 6.96L127.02 6.96Q129.46 8.12 134.33 8.12L134.33 8.12L134.33 8.12Q138.62 8.12 141.29 6.03L141.29 6.03L141.29 6.03Q143.96 3.94 145.41 0.70L145.41 0.70L145.41 0.70Q146.86-2.55 147.32-6.38L147.32-6.38L147.32-6.38Q147.78-10.21 147.78-13.69L147.78-13.69L147.78-13.69Q145.93-10.44 143.67-8.41L143.67-8.41L143.67-8.41Q141.40-6.38 138.97-5.28L138.97-5.28L138.97-5.28Q136.53-4.18 134.10-3.83L134.10-3.83L134.10-3.83Q131.66-3.48 129.46-3.48L129.46-3.48L129.46-3.48Q125.16-3.48 121.63-4.64L121.63-4.64L121.63-4.64Q118.09-5.80 115.54-8.41L115.54-8.41L115.54-8.41Q112.98-11.02 111.59-15.20L111.59-15.20L111.59-15.20Q110.20-19.37 110.20-25.29L110.20-25.29L110.20-25.29Q110.20-27.49 110.43-31.15L110.43-31.15L110.43-31.15Q110.66-34.80 111.01-39.38L111.01-39.38L111.01-39.38Q111.36-43.96 111.77-49.30L111.77-49.30L111.77-49.30Q112.17-54.64 112.64-60.20L112.64-60.20L112.64-60.20Q112.87-63.80 115.88-63.80L115.88-63.80L119.60-63.80L119.60-63.80Q123.31-63.80 125.63-63.10L125.63-63.10L125.63-63.10Q127.95-62.41 129.28-61.07L129.28-61.07L129.28-61.07Q130.62-59.74 131.08-57.71L131.08-57.71L131.08-57.71Q131.54-55.68 131.54-53.13ZM213.32-33.52L203.23-33.52L201.03-1.74L201.03-1.74Q200.91-0.81 200.85-0.41L200.85-0.41L200.85-0.41Q200.80 0 199.75 0L199.75 0L193.37 0L193.37 0Q186.88 0 184.09-2.55L184.09-2.55L184.09-2.55Q181.31-5.10 181.31-9.86L181.31-9.86L181.31-9.86Q181.31-12.18 181.66-17.81L181.66-17.81L181.66-17.81Q182.00-23.43 182.58-30.62L182.58-30.62L182.58-30.62Q183.16-37.82 183.74-45.82L183.74-45.82L183.74-45.82Q184.32-53.82 184.90-60.90L184.90-60.90L184.90-60.90Q185.48-67.98 185.83-73.31L185.83-73.31L185.83-73.31Q186.18-78.65 186.18-80.62L186.18-80.62L186.18-80.62Q186.18-82.36 188.04-82.36L188.04-82.36L228.87-82.36L228.87-82.36Q229.56-82.36 230.14-82.01L230.14-82.01L230.14-82.01Q230.72-81.66 230.72-80.74L230.72-80.74L230.26-73.89L230.26-73.89Q230.03-70.41 228.35-68.27L228.35-68.27L228.35-68.27Q226.66-66.12 221.44-66.12L221.44-66.12L205.44-66.12L204.28-49.76L220.75-49.76L220.75-49.76Q221.44-49.76 222.02-49.42L222.02-49.42L222.02-49.42Q222.60-49.07 222.60-48.14L222.60-48.14L222.14-41.30L222.14-41.30Q221.91-37.82 220.23-35.67L220.23-35.67L220.23-35.67Q218.54-33.52 213.32-33.52L213.32-33.52ZM257.98 1.16L257.98 1.16L257.98 1.16Q251.14 1.16 246.73 0.29L246.73 0.29L246.73 0.29Q242.32-0.58 239.71-2.26L239.71-2.26L239.71-2.26Q237.10-3.94 236.12-6.50L236.12-6.50L236.12-6.50Q235.13-9.05 235.13-12.53L235.13-12.53L235.13-12.53Q235.13-13.57 235.25-15.49L235.25-15.49L235.25-15.49Q235.36-17.40 235.60-20.88L235.60-20.88L235.60-20.88Q235.83-24.36 236.23-29.87L236.23-29.87L236.23-29.87Q236.64-35.38 237.34-43.73L237.34-43.73L237.34-43.73Q238.15-54.06 238.61-60.09L238.61-60.09L238.61-60.09Q239.08-66.12 239.31-69.43L239.31-69.43L239.31-69.43Q239.54-72.73 239.60-74.07L239.60-74.07L239.60-74.07Q239.66-75.40 239.66-76.33L239.66-76.33L239.66-76.33Q239.66-78.18 239.71-79.34L239.71-79.34L239.71-79.34Q239.77-80.50 239.95-81.14L239.95-81.14L239.95-81.14Q240.12-81.78 240.53-82.07L240.53-82.07L240.53-82.07Q240.93-82.36 241.74-82.36L241.74-82.36L241.74-82.36Q248.59-82.82 253.40-83.06L253.40-83.06L253.40-83.06Q258.22-83.29 261.81-83.29L261.81-83.29L261.81-83.29Q270.63-83.29 276.95-81.84L276.95-81.84L276.95-81.84Q283.27-80.39 287.22-77.72L287.22-77.72L287.22-77.72Q291.16-75.05 293.02-71.11L293.02-71.11L293.02-71.11Q294.87-67.16 294.87-62.18L294.87-62.18L294.87-62.18Q294.87-59.39 294.29-56.43L294.29-56.43L294.29-56.43Q293.71-53.48 292.32-50.81L292.32-50.81L292.32-50.81Q290.93-48.14 288.55-46.11L288.55-46.11L288.55-46.11Q286.17-44.08 282.58-43.15L282.58-43.15L282.58-43.15Q289.30-41.06 292.09-36.25L292.09-36.25L292.09-36.25Q294.87-31.44 294.87-24.82L294.87-24.82L294.87-24.82Q294.87-19.49 293.13-14.79L293.13-14.79L293.13-14.79Q291.39-10.09 287.10-6.55L287.10-6.55L287.10-6.55Q282.81-3.02 275.73-0.93L275.73-0.93L275.73-0.93Q268.66 1.16 257.98 1.16ZM264.60-34.80L264.60-34.80L264.60-34.80Q263.32-34.80 261.46-34.63L261.46-34.63L261.46-34.63Q259.61-34.45 257.64-34.10L257.64-34.10L256.36-15.20L256.36-15.20Q260.54-13.92 263.90-13.92L263.90-13.92L263.90-13.92Q267.50-13.92 269.70-14.96L269.70-14.96L269.70-14.96Q271.90-16.01 273.12-17.57L273.12-17.57L273.12-17.57Q274.34-19.14 274.75-21.05L274.75-21.05L274.75-21.05Q275.15-22.97 275.15-24.59L275.15-24.59L275.15-24.59Q275.15-28.88 272.77-31.84L272.77-31.84L272.77-31.84Q270.40-34.80 264.60-34.80ZM259.72-66.70L259.72-66.70L259.72-66.70Q259.49-63.68 259.32-59.62L259.32-59.62L259.32-59.62Q259.14-55.56 258.80-50.81L258.80-50.81L258.80-50.81Q262.51-49.88 265.41-49.88L265.41-49.88L265.41-49.88Q268.89-49.88 270.98-50.69L270.98-50.69L270.98-50.69Q273.06-51.50 274.28-52.78L274.28-52.78L274.28-52.78Q275.50-54.06 275.91-55.56L275.91-55.56L275.91-55.56Q276.31-57.07 276.31-58.46L276.31-58.46L276.31-58.46Q276.31-62.06 273.93-64.67L273.93-64.67L273.93-64.67Q271.56-67.28 265.76-67.28L265.76-67.28L265.76-67.28Q264.48-67.28 262.91-67.11L262.91-67.11L262.91-67.11Q261.35-66.93 259.72-66.70Z" fill="#456caa"></path></g></g><style>text {
  font-size: 64px;
  font-family: Arial Black;
  dominant-baseline: central;
  text-anchor: middle;
}</style></svg>